<svg width="124" height="124" viewBox="0 0 124 124" fill="none" xmlns="http://www.w3.org/2000/svg">
<path d="M124 62C124 96.2417 96.2417 124 62 124C27.7583 124 0 96.2417 0 62C0 27.7583 27.7583 0 62 0C96.2417 0 124 27.7583 124 62Z" fill="#B3A3A3"/>
<path d="M31.22 75.3C30.36 75.3 29.51 75.23 28.67 75.09C27.83 74.97 27.03 74.79 26.27 74.55V70.95C26.99 71.25 27.75 71.49 28.55 71.67C29.35 71.85 30.12 71.94 30.86 71.94C31.94 71.94 32.77 71.74 33.35 71.34C33.93 70.92 34.22 70.31 34.22 69.51C34.22 69.03 34.11 68.6 33.89 68.22C33.69 67.82 33.34 67.43 32.84 67.05C32.36 66.65 31.7 66.21 30.86 65.73C29.58 64.97 28.56 64.25 27.8 63.57C27.04 62.87 26.49 62.13 26.15 61.35C25.83 60.55 25.67 59.65 25.67 58.65C25.67 56.65 26.3 55.18 27.56 54.24C28.82 53.28 30.69 52.8 33.17 52.8C33.87 52.8 34.59 52.84 35.33 52.92C36.07 52.98 36.82 53.1 37.58 53.28V59.91H33.83V54.72L35.18 56.34C34.82 56.28 34.46 56.24 34.1 56.22C33.74 56.18 33.4 56.16 33.08 56.16C31.82 56.16 30.91 56.36 30.35 56.76C29.79 57.16 29.51 57.81 29.51 58.71C29.51 59.23 29.62 59.71 29.84 60.15C30.08 60.59 30.46 61.03 30.98 61.47C31.52 61.91 32.24 62.39 33.14 62.91C34.36 63.61 35.33 64.29 36.05 64.95C36.77 65.59 37.28 66.28 37.58 67.02C37.9 67.76 38.06 68.62 38.06 69.6C38.06 71.52 37.5 72.95 36.38 73.89C35.26 74.83 33.54 75.3 31.22 75.3ZM41.63 75V71.79H45.08V56.31H41.63V53.1H52.37V56.31H48.92V71.79H52.37V75H41.63ZM56.57 75V53.1H60.41V71.67H68.12V75H56.57ZM74.84 75L69.77 53.1H73.55L76.94 69.96H77.06L80.45 53.1H84.23L79.16 75H74.84ZM84.77 75L89.84 53.1H94.16L99.23 75H95.45L92.06 57.63H91.94L88.55 75H84.77ZM87.83 69.99V66.78H96.17V69.99H87.83Z" fill="#FFFEFE"/>
</svg>
