<svg width="75" height="24" viewBox="0 0 75 24" fill="none" xmlns="http://www.w3.org/2000/svg">
<path d="M6.22 23.3C5.36 23.3 4.51 23.23 3.67 23.09C2.83 22.97 2.03 22.79 1.27 22.55V18.95C1.99 19.25 2.75 19.49 3.55 19.67C4.35 19.85 5.12 19.94 5.86 19.94C6.94 19.94 7.77 19.74 8.35 19.34C8.93 18.92 9.22 18.31 9.22 17.51C9.22 17.03 9.11 16.6 8.89 16.22C8.69 15.82 8.34 15.43 7.84 15.05C7.36 14.65 6.7 14.21 5.86 13.73C4.58 12.97 3.56 12.25 2.8 11.57C2.04 10.87 1.49 10.13 1.15 9.35C0.83 8.55 0.67 7.65 0.67 6.65C0.67 4.65 1.3 3.18 2.56 2.24C3.82 1.28 5.69 0.8 8.17 0.8C8.87 0.8 9.59 0.839999 10.33 0.919998C11.07 0.979999 11.82 1.1 12.58 1.28V7.91H8.83V2.72L10.18 4.34C9.82 4.28 9.46 4.24 9.1 4.22C8.74 4.18 8.4 4.16 8.08 4.16C6.82 4.16 5.91 4.36 5.35 4.76C4.79 5.16 4.51 5.81 4.51 6.71C4.51 7.23 4.62 7.71 4.84 8.15C5.08 8.59 5.46 9.03 5.98 9.47C6.52 9.91 7.24 10.39 8.14 10.91C9.36 11.61 10.33 12.29 11.05 12.95C11.77 13.59 12.28 14.28 12.58 15.02C12.9 15.76 13.06 16.62 13.06 17.6C13.06 19.52 12.5 20.95 11.38 21.89C10.26 22.83 8.54 23.3 6.22 23.3ZM16.63 23V19.79H20.08V4.31H16.63V1.1H27.37V4.31H23.92V19.79H27.37V23H16.63ZM31.57 23V1.1H35.41V19.67H43.12V23H31.57ZM49.84 23L44.77 1.1H48.55L51.94 17.96H52.06L55.45 1.1H59.23L54.16 23H49.84ZM59.77 23L64.84 1.1H69.16L74.23 23H70.45L67.06 5.63H66.94L63.55 23H59.77ZM62.83 17.99V14.78H71.17V17.99H62.83Z" fill="#B3A3A3"/>
</svg>
